<?xml version="1.0" encoding="utf-8"?>
<!-- Generator: Adobe Illustrator 22.1.0, SVG Export Plug-In . SVG Version: 6.00 Build 0)  -->
<svg version="1.1" xmlns="http://www.w3.org/2000/svg" xmlns:xlink="http://www.w3.org/1999/xlink" x="0px" y="0px"
	 viewBox="0 0 2158.5 916.4" style="enable-background:new 0 0 2158.5 916.4;" xml:space="preserve">
<style type="text/css">
	.st0{opacity:0.75;fill:#FFFFFF;}
	.st1{fill:#0C412F;}
	.st2{fill:none;stroke:#F8F8F8;stroke-width:9.8703;stroke-linecap:round;stroke-linejoin:round;stroke-miterlimit:10;}
	.st3{fill:#FFE5D2;}
	.st4{fill:#E2E0C5;}
	.st5{fill:#FA7F9B;}
	.st6{fill:#ED3729;}
</style>
<g id="Background">
</g>
<g id="Lenses">
	<path id="Right" class="st0" d="M1546.7,704.7c-251.7,0-333.9-225.4-333.9-304.3c0-52.6,36.2-106.9,79-143.1
		c88.8-75.7,230.3-105.3,375.1-105.3c195.8,0,267.5,52.6,267.5,177.7C1934.4,527,1773.8,704.7,1546.7,704.7z"/>
	<path id="Left" class="st0" d="M609.1,704.7c-227,0-387.6-177.7-387.6-375.1c0-125,71.8-177.7,267.5-177.7
		c144.8,0,286.2,29.6,375.1,105.3c42.8,36.2,79,90.5,79,143.1C943,479.3,860.8,704.7,609.1,704.7z"/>
</g>
<g id="Glasses_x5F_Main_x5F_Shape">
	<path class="st1" d="M1546.7,704.7c-251.7,0-333.9-225.4-333.9-304.3c0-52.6,36.2-106.9,79-143.1
		c88.8-75.7,230.3-105.3,375.1-105.3c195.8,0,267.5,52.6,267.5,177.7C1934.4,527,1773.8,704.7,1546.7,704.7z M609.1,704.7
		c-227,0-387.6-177.7-387.6-375.1c0-125,71.8-177.7,267.5-177.7c144.8,0,286.2,29.6,375.1,105.3c42.8,36.2,79,90.5,79,143.1
		C943,479.3,860.8,704.7,609.1,704.7z M605.8,757.3c286.2,0,360.3-228.7,381.7-286.2c14.8-41.1,39.5-74,88.8-74
		c52.6,0,77.3,32.9,92.1,74c21.4,57.6,95.4,286.2,381.7,286.2c269.8,0,394.8-202.3,463.9-468.8c11.5-44.4,19.7-82.3,82.3-85.5V82.9
		c-79-23-125-32.9-241.8-32.9c-223.7,0-389.9,32.9-511.6,90.5c-115.2,54.3-185.9,130-264.9,130c-79,0-149.7-75.7-264.9-130
		C691.3,82.9,525.2,50,301.4,50c-116.8,0-162.9,9.9-241.8,32.9V203c62.5,3.3,70.7,41.1,82.3,85.5C211,555,336,757.3,605.8,757.3z"/>
</g>
<g id="Glasses_x5F_Details">
	
		<ellipse transform="matrix(0.3609 -0.9326 0.9326 0.3609 366.6146 980.4312)" class="st3" cx="898.6" cy="222.7" rx="12.6" ry="19.7"/>
	<ellipse transform="matrix(0.9028 -0.43 0.43 0.9028 28.9057 563.6907)" class="st3" cx="1261.7" cy="217.9" rx="19.7" ry="12.6"/>
	<path class="st3" d="M1384,694.6c-0.8,0-1.7-0.2-2.5-0.6c-35.3-17.2-67.4-41.4-95.6-71.7c-22.3-24.1-42.2-52.1-59.1-83.2
		c-1.5-2.8-0.5-6.3,2.3-7.8c2.8-1.5,6.3-0.5,7.8,2.3c16.4,30.3,35.7,57.5,57.4,80.9c27.2,29.3,58.2,52.6,92.2,69.2
		c2.9,1.4,4,4.8,2.6,7.7C1388.1,693.4,1386.1,694.6,1384,694.6z"/>
	<path class="st3" d="M1217.5,514.2c-2.2,0-4.3-1.2-5.2-3.3c-3.1-6.8-8.4-19-11.3-25.5l-0.7-1.7c-1.3-2.9,0.1-6.3,3-7.6
		c2.9-1.3,6.3,0.1,7.6,3l0.7,1.7c2.8,6.5,8.1,18.6,11.2,25.3c1.3,2.9,0.1,6.3-2.8,7.6C1219.1,514,1218.3,514.2,1217.5,514.2z"/>
	<path class="st4" d="M2028.5,97.5c-51.9-4.7-296.8-37.6-438.6,36c110.3-16.2,258.2-11.9,394.6,46.3c17.9,11.6,16.9-12.6,10.8-22.4
		c25.1,1.2,61-29.7,60.2-47.4C2060.8,106.5,2037.4,98.3,2028.5,97.5z M1995.8,111.5c-14.1-0.8-28.2-1.3-42.3-1.7
		c-14.1-0.4-28.2-0.7-42.4-0.8c-14.1-0.2-28.3-0.3-42.4-0.3c-28.3,0-56.5,0.2-84.8,0.8c-14.1,0.3-28.3,0.5-42.4,1
		c-7.1,0.2-14.1,0.5-21.2,0.9c-3.5,0.2-7.1,0.4-10.6,0.7c-1.8,0.2-3.5,0.3-5.3,0.5l-2.6,0.4l-2.6,0.5l2.5-0.9l2.6-0.7
		c1.7-0.5,3.5-0.8,5.2-1.3c3.5-0.7,7-1.4,10.5-2c7-1.2,14.1-2.1,21.1-3c14.1-1.6,28.3-3,42.4-4c28.3-2,56.7-2.9,85.1-2.9
		c7.1,0,14.2,0.1,21.3,0.2c7.1,0.2,14.2,0.3,21.3,0.6c14.2,0.5,28.4,1.3,42.6,2.5c14.2,1.1,28.3,2.7,42.4,4.7
		c14.1,2.1,28.1,4.5,41.9,8.1C2024,113.3,2009.9,112.2,1995.8,111.5z"/>
	<path class="st4" d="M111.8,97.5c-8.9,0.8-32.3,9-26.9,12.6c-0.8,17.7,35,48.5,60.2,47.4c-6.2,9.7-7.2,34,10.8,22.4
		c136.4-58.3,284.3-62.5,394.6-46.3C408.6,59.9,163.7,92.8,111.8,97.5z M435.9,112.6c-1.7-0.3-3.5-0.4-5.3-0.5
		c-3.5-0.3-7-0.5-10.6-0.7c-7.1-0.4-14.1-0.7-21.2-0.9c-14.1-0.5-28.3-0.8-42.4-1c-28.3-0.5-56.5-0.8-84.8-0.8
		c-14.1,0-28.3,0.1-42.4,0.3c-14.1,0.2-28.2,0.4-42.4,0.8c-14.1,0.4-28.2,0.9-42.3,1.7c-14.1,0.7-28.2,1.8-42.4,3.3
		c13.8-3.6,27.8-6,41.9-8.1c14.1-2,28.2-3.5,42.4-4.7c14.2-1.2,28.4-1.9,42.6-2.5c7.1-0.3,14.2-0.4,21.3-0.6
		c7.1-0.1,14.2-0.2,21.3-0.2c28.4,0,56.8,0.9,85.1,2.9c14.2,1,28.3,2.3,42.4,4c7.1,0.9,14.1,1.8,21.1,3c3.5,0.6,7,1.2,10.5,2
		c1.7,0.4,3.5,0.8,5.2,1.3l2.6,0.7l2.5,0.9l-2.6-0.5L435.9,112.6z"/>
	<circle class="st3" cx="1194.1" cy="451.1" r="8.5"/>
	<path class="st3" d="M406.1,674.7c-0.8,0-1.7-0.2-2.5-0.6c-34.2-16.5-66.1-40.4-94.9-71c-29.4-31.3-49.1-62.9-60.5-83.9
		c-1.5-2.8-0.5-6.3,2.3-7.8c2.8-1.5,6.3-0.5,7.8,2.3c11.1,20.4,30.2,51.2,58.7,81.5c27.8,29.6,58.6,52.7,91.5,68.5
		c2.9,1.4,4.1,4.8,2.7,7.7C410.3,673.5,408.3,674.7,406.1,674.7z"/>
	<path class="st3" d="M239.6,494.3c-2.2,0-4.3-1.2-5.2-3.3c-3-6.5-7.1-15.9-9.8-22.1l-1.1-2.6c-1.3-2.9,0.1-6.3,3-7.6
		c2.9-1.3,6.3,0.1,7.6,3l1.1,2.6c2.7,6.2,6.8,15.6,9.7,21.9c1.3,2.9,0.1,6.3-2.8,7.6C241.2,494.1,240.4,494.3,239.6,494.3z"/>
	<circle class="st3" cx="216.3" cy="431.2" r="8.5"/>
	<path class="st3" d="M1078.9,303.1c-13.2,0-26.4-1.9-40.5-4.9c-3.6-0.8-5.8-4.2-5.1-7.8c0.8-3.6,4.2-5.8,7.8-5.1
		c37.8,8,66.4,7.6,109.5-17.4c3.1-1.8,7.2-0.8,9,2.4c1.8,3.1,0.8,7.2-2.4,9C1127.1,296.8,1103,303.1,1078.9,303.1z"/>
	<path class="st3" d="M1011.8,289.4c-0.8,0-1.6-0.1-2.3-0.4c-9.6-3.7-13.9-5.9-19.9-9.6c-3.1-1.9-4.1-6-2.2-9.1s6-4.1,9.1-2.2
		c5.4,3.3,9.1,5.3,17.8,8.6c3.4,1.3,5.1,5.1,3.8,8.5C1016.9,287.7,1014.4,289.4,1011.8,289.4z"/>
</g>
<g id="Type">
	<path class="st5" d="M1869.7,414l-3.6-1.2c-9.7-3.6-18.2,0-21.8,9.7c-7.3,19.5-17.9,45.4-32.8,69.6V217.4c0-9.7-3.6-17-13.3-19.4
		c-2.4-1.2-3.6-1.2-6.1-2.4c-12.1-3.6-19.4,2.4-19.4,14.6v356.8c0,14.6,10.9,19.4,20.6,9.7c27.9-26.7,65.5-76.4,87.4-140.8
		C1884.3,426.1,1879.4,417.6,1869.7,414z"/>
	<path class="st5" d="M1735,575.4c-10.9,7.3-21.8,12.1-31.5,17V435.8h25.5c10.9,0,17-6.1,17-17v-12.1c0-10.9-6.1-17-17-17h-25.5
		V227.1c8.5,0,19.4,1.2,29.1,2.4c12.1,3.6,19.4-1.2,19.4-13.3v-12.1c0-9.7-4.9-17-14.6-18.2c-18.2-3.6-35.2-6.1-58.2-6.1
		c-10.9,0-17,6.1-17,17v435.6c0,12.1,7.3,18.2,19.4,14.6c21.8-6.1,41.3-17,64.3-34c7.3-4.9,9.7-12.1,9.7-20.6v-8.5
		C1755.6,571.8,1747.1,568.1,1735,575.4z"/>
	<path class="st5" d="M1617.3,181h-9.7c-10.9,0-17,7.3-17,18.2v190.5h-38.8V267.2c0-10.9-6.1-18.2-17-15.8
		c-6.1,1.2-8.5,1.2-13.3,2.4c-8.5,2.4-13.3,9.7-13.3,19.4v378.6c0,9.7,6.1,17,15.8,17c4.9,0,6.1,1.2,10.9,1.2c10.9,0,17-6.1,17-17
		V435.8h38.8v213.6c0,10.9,6.1,18.2,18.2,15.8c3.6,0,6.1-1.2,9.7-1.2c10.9-2.4,15.8-9.7,15.8-19.4V196.8
		C1634.3,185.9,1628.2,181,1617.3,181z"/>
	<path class="st5" d="M1534.8,189.5c-52.2,6.1-87.4,15.8-131.1,36.4c-8.5,3.6-12.1,10.9-12.1,19.4v14.6c0,13.3,8.5,17,20.6,10.9
		c8.8-4.4,17.6-8.6,26.7-12.5v375.3c0,9.7,4.9,15.8,14.6,19.4c2.4,0,2.4,1.2,4.9,2.4c12.1,6.1,19.4-1.2,19.4-13.3V243.8
		c17.3-5.5,35.7-9.9,55.8-13c13.3-2.4,19.4-8.5,19.4-18.2v-7.3C1553,194.4,1546.9,187.1,1534.8,189.5z"/>
	<path class="st5" d="M1406.2,586.3c-57.8-45.4-94.5-96-104.2-150.5h67.8c10.9,0,17-6.1,17-17v-12.1c0-10.9-6.1-17-17-17h-69.2
		c5.1-37.4,27.4-69.1,64.4-93.4c7.3-4.9,10.9-12.1,10.9-20.6v-12.1c0-13.3-9.7-19.4-20.6-12.1c-58.2,38.8-98.3,99.5-98.3,155.3
		c0,74,65.5,177.2,139.5,223.3c12.1,7.3,20.6,1.2,20.6-12.1v-10.9C1417.1,598.4,1413.5,591.2,1406.2,586.3z"/>
	<path class="st5" d="M803.5,307.2c7.3,6.1,14.6,6.1,20.6,0l10.9-9.7c6.1-6.1,7.3-14.6,0-20.6c-34-30.3-71.6-49.8-120.1-66.7
		c-10.9-2.4-17,2.4-17,12.1v413.8c0,12.1,7.3,18.2,19.4,13.3c40-15.8,74-36.4,106.8-72.8c7.3-8.5,7.3-17-1.2-24.3l-6.1-4.9
		c-7.3-7.3-15.8-7.3-23.1,1.2c-15.8,15.8-34,30.3-48.5,40V435.8h71.6c9.7,0,15.8-6.1,15.8-15.8v-14.6c0-9.7-6.1-15.8-15.8-15.8
		h-71.6V270.8C761.1,278.1,782.9,290.2,803.5,307.2z"/>
	<path class="st5" d="M645.8,191.9l-12.1-1.2c-12.1-2.4-19.4,3.6-19.4,15.8v183.2h-63.1V198c0-10.9-6.1-18.2-17-18.2H522
		c-12.1,0-18.2,7.3-18.2,18.2v441.7c0,10.9,4.9,17,15.8,19.4l12.1,3.6c12.1,2.4,19.4-4.9,19.4-17V435.8h63.1v216
		c0,12.1,6.1,18.2,18.2,17c4.9,0,9.7-1.2,13.3-1.2c10.9-1.2,15.8-8.5,15.8-19.4V212.6C661.6,201.7,656.7,194.4,645.8,191.9z"/>
	<path class="st5" d="M466.2,179.8c-26.7,1.2-57,3.6-84.9,10.9c-47.3,12.1-76.4,32.8-95.9,57c-3.6,4.9-4.9,10.9-4.9,17V283
		c0,10.9,7.3,14.6,17,6.1c25.1-21.8,48.2-35.8,70.4-44.9v321.6c0,8.5,2.4,15.8,9.7,21.8c4.9,4.9,9.7,8.5,15.8,12.1
		c12.1,9.7,21.8,3.6,21.8-10.9V231.1c18-2.8,36-3.6,54.6-4c6.1,0,9.7-4.9,9.7-13.3v-20.6C479.5,184.7,474.7,179.8,466.2,179.8z"/>
	<g>
		<g>
			<polygon points="1440,801.7 1485.7,801.7 1485.7,809.8 1448.7,809.8 1448.7,834.2 1483.1,834.2 1483.1,842.3 1448.7,842.3 
				1448.7,875.5 1440,875.5 			"/>
			<path d="M1527.7,841.5c5.8-0.9,10.3-3,13.5-6.4c3.3-3.3,4.9-7.7,4.9-13.1c0-4.6-0.9-8.2-2.6-10.9c-1.7-2.7-4-4.7-6.8-6.1
				c-2.8-1.4-5.9-2.3-9.4-2.7c-3.5-0.4-7-0.6-10.6-0.6h-18.9v73.8h8.8v-33.1h11.3l20,33.1h10.7L1527.7,841.5z M1514.5,834.2h-7.8
				v-24.4h12.3c2.2,0,4.3,0.1,6.4,0.4c2.1,0.3,4,0.9,5.7,1.7c1.7,0.9,3.1,2.1,4.1,3.7c1,1.6,1.6,3.7,1.6,6.4c0,3.1-0.7,5.4-2.1,7
				c-1.4,1.6-3.2,2.8-5.4,3.6c-2.2,0.8-4.6,1.2-7.2,1.4C1519.4,834.1,1516.9,834.2,1514.5,834.2z"/>
			<path d="M1628.7,823.1c-1.9-4.8-4.6-8.9-8-12.3c-3.4-3.4-7.5-6.1-12.2-8.1c-4.7-1.9-9.8-2.9-15.5-2.9c-5.6,0-10.8,1-15.5,2.9
				c-4.7,1.9-8.8,4.6-12.2,8.1c-3.4,3.4-6.1,7.5-8,12.3c-1.9,4.8-2.9,9.9-2.9,15.5c0,5.6,1,10.7,2.9,15.5c1.9,4.8,4.6,8.9,8,12.3
				c3.4,3.4,7.5,6.1,12.2,8.1c4.7,1.9,9.8,2.9,15.5,2.9c5.6,0,10.8-1,15.5-2.9c4.7-1.9,8.8-4.6,12.2-8.1c3.4-3.4,6.1-7.5,8-12.3
				c1.9-4.8,2.9-9.9,2.9-15.5C1631.5,833,1630.6,827.9,1628.7,823.1z M1620,850.5c-1.4,3.7-3.4,7-6,9.7c-2.6,2.8-5.6,5-9.2,6.6
				c-3.6,1.6-7.5,2.4-11.8,2.4c-4.3,0-8.2-0.8-11.8-2.4c-3.6-1.6-6.7-3.8-9.2-6.6c-2.6-2.8-4.6-6-6-9.7c-1.4-3.7-2.1-7.7-2.1-11.9
				c0-4.2,0.7-8.2,2.1-11.9c1.4-3.7,3.4-7,6-9.7c2.6-2.8,5.6-5,9.2-6.6c3.6-1.6,7.5-2.4,11.8-2.4c4.3,0,8.2,0.8,11.8,2.4
				c3.6,1.6,6.6,3.8,9.2,6.6c2.6,2.8,4.6,6,6,9.7c1.4,3.7,2.1,7.7,2.1,11.9C1622.1,842.8,1621.4,846.8,1620,850.5z"/>
			<polygon points="1641.6,801.7 1654.6,801.7 1679.6,859.5 1679.8,859.5 1705,801.7 1717.7,801.7 1717.7,875.5 1709,875.5 
				1709,813.6 1708.8,813.6 1682.3,875.5 1677,875.5 1650.5,813.6 1650.3,813.6 1650.3,875.5 1641.6,875.5 			"/>
		</g>
		<path class="st6" d="M1796.6,860.9c0.1,0,0.1,0,0.2,0l-5.2,14h-0.3h-19.9h-0.3l5-12h0.2h0C1777.7,862.9,1787.1,862.8,1796.6,860.9
			L1796.6,860.9z"/>
		<path class="st6" d="M2040,801h-39.2v70.8l-21.1-22.9c3.2-1.5,14.9-7.2,14.9-22c0-14.8-12-26-36.4-26h-35.9v68.2L1896,801h-30.1
			l-18.9,46.3l-17.9-46.3h-12.7h-14.8h-2.6l-18.1,44.1c-2.3,0.2-4.7,0.4-7.5,0.4c-16.7,0-31.1-9.3-32.6-10.3l-5.8,14.1
			c0.8,0.5,15.8,11.1,37.5,11.1c13.4,0,21.6-3.1,34.5-3.1c16.7,0,28.3,5.9,32.4,8.3l-1.1,2.8c-2.6-1.5-7.7-4.3-14.5-6l4.5,12.4h27.5
			l6.1-16.4c0.4-0.1,6.6-1.2,13.7-1.2c7.1,0,13.1,1.1,13.5,1.2l5.9,16.3h53.9v-29.7l22.6,29.7h55.9V853h12.4
			c20.6,0,33.1-10.2,33.1-26C2073.1,812,2061.7,801,2040,801z M1805.3,842.8c-1.6,0-3,0-4.4,0.1l8.1-21.8l8.2,22.8
			C1816.7,843.8,1811.9,842.8,1805.3,842.8z M1875.7,842.8c-3.5,0-8,0.5-8.4,0.6l8.4-22l8.2,22
			C1883.6,843.3,1879.5,842.8,1875.7,842.8z M1953.1,840.8h-3.9v-27.6h3.9c10.2,0,13.9,6.5,13.9,13.8
			C1967,835.5,1962.3,840.8,1953.1,840.8z M2033.1,840.8h-5.4v-27.6h5.4c8.1,0,12.4,5.8,12.4,13.8
			C2045.5,835.6,2040.7,840.8,2033.1,840.8z"/>
	</g>
	<g>
		<path class="st6" d="M2090,809c0,4.2-3.3,7.5-7.6,7.5c-4.2,0-7.6-3.3-7.6-7.5c0-4.1,3.4-7.4,7.6-7.4
			C2086.7,801.6,2090,804.9,2090,809z M2076.7,809c0,3.3,2.4,5.9,5.8,5.9c3.3,0,5.6-2.6,5.6-5.9c0-3.3-2.4-6-5.7-6
			C2079.1,803.1,2076.7,805.7,2076.7,809z M2081.3,812.9h-1.7v-7.4c0.7-0.1,1.6-0.2,2.8-0.2c1.4,0,2,0.2,2.6,0.5
			c0.4,0.3,0.7,0.9,0.7,1.6c0,0.8-0.6,1.4-1.5,1.7v0.1c0.7,0.3,1.1,0.8,1.4,1.8c0.2,1.1,0.4,1.6,0.5,1.9h-1.9
			c-0.2-0.3-0.4-0.9-0.6-1.8c-0.1-0.8-0.6-1.2-1.5-1.2h-0.8V812.9z M2081.3,808.7h0.8c0.9,0,1.7-0.3,1.7-1.1c0-0.7-0.5-1.1-1.6-1.1
			c-0.5,0-0.8,0-0.9,0.1V808.7z"/>
	</g>
</g>
</svg>
